<svg width="139" height="47" viewBox="0 0 139 47" fill="none" xmlns="http://www.w3.org/2000/svg">
<path d="M47.0062 23.4969C47.0062 36.4776 36.4838 47 23.5031 47C19.372 47 15.4884 45.9301 12.1118 44.0656C9.72467 42.7329 7.59422 41.0106 5.80698 38.9636C2.18613 34.8326 0 29.4152 0 23.4969C0 21.6014 0.228808 19.7555 0.649335 17.9899C1.50585 14.4339 3.16322 11.1934 5.42974 8.47236C9.74632 3.29308 16.2367 0 23.5062 0C36.4838 0 47.0062 10.5162 47.0062 23.4969Z" fill="#E83434"/>
<path d="M8.76311 18.8278C8.27765 20.0739 7.92823 21.3571 7.7458 22.5538L6.6141 28.6731C4.45581 26.0448 2.3377 22.5662 0.649414 17.9867C1.50593 14.4308 3.1633 11.1903 5.42982 8.46924C6.20284 12.3746 7.32838 15.8501 8.76311 18.8278Z" fill="white"/>
<path d="M32.8073 33.8709C28.5247 37.7391 21.7716 38.4751 15.5874 35.7293C15.3369 35.6149 15.0741 35.4943 14.8051 35.3582L16.1656 27.9341C16.9139 28.4257 17.6838 28.8617 18.4816 29.2173C22.087 30.819 25.8346 30.5716 28.03 28.5834C30.4171 26.4251 31.1932 23.4598 30.111 20.6522C29.2854 18.4939 27.1395 16.1934 23.599 16.1934C23.599 16.1934 23.5928 16.1934 23.5836 16.1934C17.2417 16.1934 15.9522 23.0887 15.8317 23.8741L15.81 23.9731L15.2101 27.2445L13.8125 34.8326L12.1087 44.0656C9.72164 42.7329 7.59119 41.0106 5.80396 38.9636L7.50771 29.7151L8.79092 22.7331C8.93934 21.7777 9.20527 20.7728 9.55468 19.7771C9.59797 19.6503 9.64126 19.5205 9.69073 19.3844C9.75567 19.2143 9.82678 19.0412 9.89171 18.8711C9.94118 18.7567 9.98448 18.6423 10.034 18.5217C10.1113 18.3516 10.1824 18.1785 10.269 18.0084C10.3246 17.8878 10.3834 17.758 10.4483 17.6374C10.5194 17.4735 10.5967 17.3158 10.6833 17.1612C10.7699 16.9911 10.8688 16.818 10.9616 16.6479C11.0265 16.5397 11.0822 16.4283 11.1471 16.3201C13.3858 12.5447 17.3097 9.06604 23.5867 9.06604H23.6145C29.4988 9.07222 34.6564 12.6127 36.7652 18.0919C38.908 23.6731 37.3898 29.7151 32.8073 33.8709Z" fill="white"/>
<path d="M63.7096 33.7781L64.495 35.2623C64.6249 35.5066 64.5569 35.8034 64.3342 35.9673C63.7344 36.4033 62.9088 36.8981 61.9286 37.2196C61.1401 37.4454 60.3516 37.5629 59.5631 37.5629C57.4821 37.5629 55.8526 36.8208 54.693 35.3427C53.5273 33.8647 53.1624 32.0836 53.5984 29.9965C54.0437 27.9155 55.1692 26.1283 56.9626 24.6502C58.552 23.3392 60.5216 22.4517 62.6026 22.4456C63.4251 22.4456 64.2383 22.5847 65.033 22.7981C65.3051 22.8754 65.5803 22.9743 65.8555 23.0949C66.239 23.2619 66.3657 23.7442 66.1338 24.0906L64.9959 25.7912C64.8259 26.0448 64.5105 26.153 64.2198 26.0571C63.555 25.8376 62.3707 25.5222 61.1679 25.7634C60.2712 25.9427 59.4394 26.3663 58.7375 26.9477C57.7171 27.8011 57.074 28.8246 56.8235 30.0367C56.57 31.2364 56.7647 32.2568 57.4264 33.1102C57.7635 33.5462 58.1747 33.8709 58.6602 34.0781H58.6664C58.6849 34.0904 58.7066 34.1028 58.7252 34.1028C59.1704 34.2945 59.6775 34.3873 60.2372 34.3873C60.6021 34.3873 60.9731 34.3409 61.3504 34.2419C61.4307 34.2234 61.5235 34.2017 61.6101 34.1739C62.0275 34.0502 62.4697 33.8616 62.9242 33.5771C63.1963 33.4009 63.5581 33.4937 63.7096 33.7781Z" fill="black"/>
<path d="M108.069 22.8817L106.037 36.657C105.939 37.0837 106.297 37.4857 106.773 37.4857H108.774C109.13 37.4857 109.436 37.2568 109.51 36.9384L111.541 23.163C111.64 22.7363 111.282 22.3344 110.806 22.3344H108.805C108.449 22.3344 108.143 22.5632 108.069 22.8817Z" fill="black"/>
<path d="M108.551 18.6207L108.288 20.5842C108.19 21.0109 108.548 21.4129 109.024 21.4129H111.025C111.381 21.4129 111.687 21.184 111.761 20.8655L112.024 18.902C112.123 18.4753 111.764 18.0734 111.288 18.0734H109.287C108.929 18.0765 108.622 18.3022 108.551 18.6207Z" fill="black"/>
<path d="M79.3495 24.7369C78.193 23.2372 76.5851 22.4426 74.5691 22.3745C72.5283 22.3096 70.605 23.027 68.8672 24.5112C67.1356 25.9892 66.072 27.7919 65.7071 29.8667C65.3484 31.8951 65.7473 33.6731 66.8944 35.1573C68.0478 36.6508 69.6557 37.4331 71.6687 37.4825C71.7553 37.4856 71.8418 37.4856 71.9284 37.4856C73.8764 37.4856 75.71 36.7652 77.3798 35.3459C79.1175 33.8679 80.1843 32.0806 80.543 30.0368C80.9017 28.0114 80.4997 26.2273 79.3495 24.7369ZM72.0212 34.6316C70.9173 34.6409 69.8814 34.106 69.2475 33.2031C68.5673 32.2662 68.3601 31.1963 68.6137 29.9254C68.861 28.6113 69.5629 27.4301 70.5988 26.586C71.5511 25.714 72.7911 25.2316 74.0805 25.2254C74.099 25.2254 74.1207 25.2254 74.1393 25.2254C75.3297 25.2254 76.2419 25.6491 76.9222 26.5179C77.6148 27.4054 77.8652 28.4505 77.6859 29.7152C77.4756 31.0695 76.817 32.2229 75.6698 33.2433C74.5412 34.2482 73.3508 34.7028 72.0212 34.6316Z" fill="black"/>
<path d="M105.963 23.0795C105.744 24.3225 105.673 24.9935 105.601 25.3491C105.555 25.581 105.351 25.748 105.116 25.7511C104.909 25.7511 104.631 25.7573 104.328 25.7758C103.363 25.8315 102.37 25.8624 101.501 26.3695C100.679 26.8488 100.076 27.7022 99.8934 28.636L98.3597 37.0868C98.3195 37.3063 98.1278 37.4671 97.9052 37.4671H95.5768C95.2893 37.4671 95.0697 37.2043 95.1223 36.9229L96.6065 28.7381C96.9157 27.09 97.7444 25.6645 99.0864 24.4679C100.125 23.5557 101.245 22.9744 102.444 22.7301C103.425 22.5322 104.47 22.4642 105.468 22.4797C105.781 22.4797 106.016 22.7703 105.963 23.0795Z" fill="black"/>
<path d="M93.6103 22.3405C93.2732 22.3405 92.9826 22.5754 92.9146 22.9063L91.1892 31.1375C91.0067 32.0033 90.5491 32.7454 89.8132 33.3545C89.0711 33.9606 88.264 34.2636 87.3983 34.2636C86.5263 34.2636 85.8429 33.9606 85.3636 33.3545C84.8936 32.7423 84.7452 32.0033 84.9308 31.1375L86.5943 23.197C86.6871 22.7548 86.35 22.3405 85.8986 22.3405H84.1423C83.8052 22.3405 83.5146 22.5754 83.4465 22.9063L81.7212 31.1375C81.3408 32.8814 81.6438 34.3718 82.624 35.6118C83.6042 36.8579 84.9678 37.4732 86.718 37.4732C88.4557 37.4732 90.0822 36.8548 91.5819 35.6118C93.0877 34.3718 94.0246 32.8845 94.405 31.1375L96.0685 23.197C96.1613 22.7548 95.8242 22.3405 95.3728 22.3405H93.6103Z" fill="black"/>
<path d="M122.246 33.132C121.133 34.1214 119.964 34.5667 118.656 34.4987C117.568 34.5079 116.551 33.9823 115.926 33.0918C115.867 33.0114 115.809 32.9248 115.759 32.8413L124.275 29.2514L126.656 28.2464C126.952 28.1227 127.129 27.8074 127.076 27.492C126.94 26.6911 126.649 25.9397 126.21 25.2502C126.105 25.0832 125.991 24.9193 125.867 24.7585C124.726 23.2836 123.146 22.5044 121.167 22.4364C119.16 22.3745 117.268 23.0764 115.555 24.539C113.851 25.9923 112.806 27.7641 112.447 29.8048C112.373 30.2316 112.33 30.6459 112.324 31.051C112.302 32.1208 112.525 33.1103 112.982 34.007C113.159 34.3564 113.369 34.6873 113.613 35.0089C114.748 36.4776 116.328 37.2476 118.31 37.297C118.397 37.3001 118.483 37.3001 118.567 37.3001C120.484 37.3001 122.286 36.592 123.931 35.1944C124.652 34.5791 125.258 33.9112 125.743 33.1907C125.876 32.9928 125.842 32.73 125.66 32.5785L124.259 31.4066C124.04 31.2241 123.712 31.2891 123.57 31.5364C123.242 32.1085 122.803 32.6341 122.246 33.132ZM117.259 26.5829C118.193 25.7264 119.417 25.2471 120.685 25.244H120.744C121.875 25.244 122.744 25.6305 123.406 26.4252L115.317 29.8079C115.567 28.5371 116.254 27.3961 117.259 26.5829Z" fill="black"/>
<path d="M138.402 23.0795C138.183 24.3225 138.112 24.9935 138.041 25.3491C137.994 25.581 137.79 25.748 137.555 25.7511C137.348 25.7511 137.07 25.7573 136.767 25.7758C135.802 25.8315 134.809 25.8624 133.941 26.3695C133.118 26.8488 132.515 27.7022 132.333 28.636L130.799 37.0868C130.759 37.3063 130.567 37.4671 130.344 37.4671H128.016C127.728 37.4671 127.509 37.2043 127.562 36.9229L129.046 28.7381C129.355 27.09 130.184 25.6645 131.526 24.4679C132.565 23.5557 133.684 22.9744 134.884 22.7301C135.864 22.5322 136.909 22.4642 137.908 22.4797C138.223 22.4797 138.458 22.7703 138.402 23.0795Z" fill="black"/>
<path d="M66.4862 11.6633C65.4967 11.6231 64.5691 11.9663 63.7311 12.6806C62.8993 13.3918 62.386 14.2576 62.2129 15.2563C62.0397 16.2304 62.2346 17.0869 62.785 17.8011C63.3415 18.5185 64.1084 18.8988 65.0669 18.9298C65.1071 18.9298 65.1442 18.9329 65.1844 18.9329C65.9977 18.9298 66.7923 18.6669 67.4478 18.1846L67.3984 18.469C67.3736 18.6144 67.4695 18.7535 67.6148 18.7814C67.6303 18.7844 67.6457 18.7844 67.6612 18.7844H68.5177C68.6476 18.7844 68.7589 18.6917 68.7836 18.5618L69.3526 15.3429C69.5536 14.3751 69.3711 13.5186 68.8084 12.7981C68.2394 12.0777 67.4602 11.6973 66.4862 11.6633ZM67.0026 16.8859C66.4583 17.3652 65.8832 17.5847 65.2494 17.56C64.7206 17.5538 64.2228 17.294 63.9166 16.8611C63.5858 16.4128 63.4837 15.8995 63.6043 15.2904C63.7218 14.6627 64.0589 14.0968 64.5567 13.6948C65.0236 13.2712 65.6328 13.0362 66.2605 13.0362C66.8356 13.0362 67.2747 13.2403 67.6055 13.6577C67.9426 14.0813 68.0601 14.5823 67.9673 15.1883C67.8653 15.8531 67.522 16.4561 67.0026 16.8859Z" fill="#070808"/>
<path d="M85.1409 11.6633C84.1515 11.6231 83.2238 11.9663 82.3859 12.6806C81.5541 13.3918 81.0408 14.2576 80.8677 15.2563C80.6945 16.2304 80.8893 17.0869 81.4397 17.8011C81.9963 18.5185 82.7631 18.8988 83.7217 18.9298C83.7619 18.9298 83.799 18.9329 83.8392 18.9329C84.6524 18.9298 85.4471 18.6669 86.1026 18.1846L86.0531 18.469C86.0284 18.6144 86.1242 18.7535 86.2696 18.7814C86.285 18.7844 86.3005 18.7844 86.316 18.7844H87.1725C87.3023 18.7844 87.4137 18.6917 87.4384 18.5618L88.0073 15.3429C88.2083 14.3751 88.0259 13.5186 87.4631 12.7981C86.8942 12.0777 86.115 11.6973 85.1409 11.6633ZM85.6604 16.8859C85.1162 17.3652 84.5411 17.5847 83.9072 17.56C83.3784 17.5538 82.8806 17.294 82.5745 16.8611C82.2437 16.4128 82.1416 15.8995 82.2622 15.2904C82.3797 14.6627 82.7167 14.0968 83.2146 13.6948C83.6815 13.2712 84.2906 13.0362 84.9183 13.0362C85.4935 13.0362 85.9325 13.2403 86.2634 13.6577C86.6004 14.0813 86.7179 14.5823 86.6252 15.1883C86.5231 15.8531 86.1768 16.4561 85.6604 16.8859Z" fill="#070808"/>
<path d="M95.1377 12.7982C94.5811 12.0778 93.808 11.6943 92.8402 11.6634C91.86 11.6325 90.9324 11.9757 90.0975 12.69C89.2657 13.4012 88.7524 14.267 88.5793 15.2657C88.4061 16.2397 88.5979 17.0962 89.1483 17.8105C89.7018 18.5279 90.4748 18.9051 91.4457 18.9299C91.489 18.9299 91.5292 18.933 91.5725 18.933C92.5094 18.933 93.3906 18.5866 94.1946 17.9033C95.0294 17.1921 95.5427 16.3325 95.7159 15.3492C95.8829 14.3752 95.6912 13.5156 95.1377 12.7982ZM91.6127 17.557C91.0808 17.5601 90.583 17.3034 90.2769 16.8705C89.9491 16.4191 89.8501 15.9058 89.9707 15.2935C90.0882 14.6628 90.4284 14.0938 90.9262 13.6887C91.3839 13.2713 91.9806 13.0363 92.6021 13.0332C92.6114 13.0332 92.6207 13.0332 92.6299 13.0332C93.202 13.0332 93.6411 13.2373 93.9688 13.6547C94.3028 14.0814 94.4234 14.5854 94.3368 15.1915C94.2347 15.8439 93.9194 16.3974 93.369 16.8891C92.8247 17.3745 92.2496 17.591 91.6127 17.557Z" fill="#070808"/>
<path d="M58.7127 11.6757C57.7325 11.6448 56.8049 11.9911 55.9669 12.7023C55.1321 13.4135 54.6188 14.2731 54.4456 15.2533L53.6076 20.009C53.5829 20.1543 53.6787 20.2934 53.8241 20.3213C53.8395 20.3244 53.855 20.3244 53.8705 20.3244H54.7054C54.8352 20.3244 54.9465 20.2316 54.9713 20.1017L55.3176 18.1351C55.8402 18.6361 56.5111 18.9051 57.3213 18.9391C58.3046 18.97 59.226 18.6268 60.064 17.9125C60.8957 17.2013 61.409 16.3355 61.5822 15.3368C61.7554 14.3628 61.5636 13.5063 61.0132 12.792C60.4566 12.0746 59.6836 11.7005 58.7127 11.6757ZM57.5192 17.5693C56.9348 17.5693 56.4926 17.3652 56.1586 16.9478C55.8216 16.5211 55.7041 16.0201 55.7968 15.411C55.8989 14.7586 56.2143 14.2051 56.7678 13.7134C57.2749 13.262 57.8098 13.0425 58.3973 13.0425C58.4406 13.0425 58.4839 13.0425 58.5272 13.0455C59.059 13.0425 59.5599 13.2991 59.8661 13.732C60.1938 14.1834 60.299 14.6967 60.1846 15.3059C60.0609 15.9367 59.7177 16.5025 59.2167 16.9076C58.6942 17.3528 58.1407 17.5693 57.5192 17.5693Z" fill="#070808"/>
<path d="M77.6272 11.719C77.0304 11.7469 76.4553 11.9479 75.9698 12.2973L76.2698 10.5997C76.2945 10.4544 76.1986 10.3152 76.0533 10.2874C76.0378 10.2843 76.0224 10.2843 76.007 10.2843H75.1504C75.0206 10.2843 74.9093 10.3771 74.8845 10.5069L73.4807 18.466C73.456 18.6113 73.5518 18.7505 73.6971 18.7783C73.7126 18.7814 73.7281 18.7814 73.7435 18.7814H74.6C74.7299 18.7814 74.8412 18.6886 74.866 18.5588L75.537 14.7493C75.6143 14.2762 75.8678 13.8495 76.245 13.5527C76.613 13.2404 77.0799 13.0703 77.5592 13.0672C77.9797 13.0394 78.3879 13.2156 78.6569 13.5403C78.9352 13.8681 79.0465 14.3041 78.9537 14.7246L78.2951 18.466C78.2703 18.6113 78.3662 18.7505 78.5116 18.7783C78.527 18.7814 78.5425 18.7814 78.5579 18.7814H79.4144C79.5443 18.7814 79.6556 18.6886 79.6803 18.5588L80.3235 14.907C80.4843 14.001 80.2957 13.2249 79.7669 12.6003C79.2351 11.9757 78.5147 11.6758 77.6272 11.719Z" fill="#070808"/>
<path d="M72.0552 13.1476H73.3168C73.4466 13.1476 73.5579 13.0548 73.5827 12.925L73.7249 12.1241C73.7497 11.9788 73.6538 11.8396 73.5085 11.8118C73.493 11.8087 73.4775 11.8087 73.4621 11.8087H72.2933L72.5066 10.5997C72.5314 10.4544 72.4355 10.3152 72.2902 10.2874C72.2747 10.2843 72.2593 10.2843 72.2438 10.2843H71.3873C71.2574 10.2843 71.1461 10.3771 71.1214 10.5069L70.8926 11.8087H70.5431C70.4133 11.8087 70.302 11.9015 70.2772 12.0313L70.135 12.8322C70.1102 12.9775 70.2061 13.1167 70.3514 13.1445C70.3669 13.1476 70.3824 13.1476 70.3978 13.1476H70.6545L70.0453 16.6077C69.9216 17.3034 70.0268 17.8538 70.3576 18.2465C70.7318 18.6917 71.3842 18.9175 72.3025 18.9175C72.4324 18.9175 72.5437 18.8247 72.5685 18.6948L72.6921 17.9837C72.7169 17.8383 72.621 17.6992 72.4757 17.6713C72.4602 17.6683 72.4448 17.6683 72.4293 17.6683C72.0119 17.6683 71.7243 17.5786 71.5759 17.3992C71.4306 17.2261 71.3904 16.9416 71.4584 16.552L72.0552 13.1476Z" fill="#070808"/>
</svg>
